<?xml version="1.0" encoding="utf-8"?>
<!-- Generator: Adobe Illustrator 22.0.1, SVG Export Plug-In . SVG Version: 6.00 Build 0)  -->
<svg version="1.1" id="Layer_1" xmlns="http://www.w3.org/2000/svg" xmlns:xlink="http://www.w3.org/1999/xlink" x="0px" y="0px"
	 viewBox="0 0 254.8 52" style="enable-background:new 0 0 254.8 52;" xml:space="preserve">
<style type="text/css">
	.st0{clip-path:url(#SVGID_2_);}
	.st1{clip-path:url(#SVGID_4_);fill:#FFFFFF;}
</style>
<g id="GS_horizontal_White_1_">
	<g>
		<defs>
			<rect id="SVGID_1_" width="254.8" height="52"/>
		</defs>
		<clipPath id="SVGID_2_">
			<use xlink:href="#SVGID_1_"  style="overflow:visible;"/>
		</clipPath>
		<g class="st0">
			<defs>
				<rect id="SVGID_3_" width="254.8" height="52"/>
			</defs>
			<clipPath id="SVGID_4_">
				<use xlink:href="#SVGID_3_"  style="overflow:visible;"/>
			</clipPath>
			<path class="st1" d="M75.9,33.1c0,2.7-0.5,4.5-1.6,5.7c-1.3,1.5-3.2,2.1-6,2.1c-2.6,0-4.9-0.6-6.9-1.7l0.4-3.9
				c1.6,1,3.6,1.7,5.4,1.7c2.3,0,3.1-1,3.1-3.2v-1.4c-0.7,0.9-2.2,1.5-3.8,1.5c-4.2,0-6.7-2.7-6.7-7.3c0-5.9,4.2-9.1,9.8-9.1
				c2,0,4.7,0.4,6.3,1V33.1z M70.3,21.4c-0.2-0.1-0.6-0.1-0.9-0.1c-2.6,0-4,2.2-4,5.1c0,2.5,1,3.8,2.6,3.8c0.8,0,1.4-0.3,1.8-0.7
				c0.4-0.4,0.5-1.1,0.5-1.8V21.4z"/>
			<path class="st1" d="M92.8,27.1c-0.4,0.4-1,0.5-1.7,0.5h-7.8c0.4,1.9,1.6,3,3.8,3c1.9,0,4-0.7,5.4-1.7l-0.2,3.5
				c-1.8,1.3-4.2,1.8-6.5,1.8c-5.3,0-8.3-3.2-8.3-8.2c0-5.4,3.4-8.4,8-8.4s7.8,2.7,7.8,7.2C93.4,25.8,93.3,26.6,92.8,27.1
				 M85.6,21.3c-1.4,0-2.3,1.2-2.4,3.7h4.4c0.2,0,0.4-0.1,0.4-0.4C88,22.9,87.3,21.3,85.6,21.3"/>
			<path class="st1" d="M111.5,34h-5.5v-9.7c0-0.7,0-1.2-0.3-1.7c-0.3-0.5-0.9-0.8-1.6-0.8c-0.9,0-1.5,0.4-1.8,0.9
				c-0.4,0.5-0.4,1.3-0.4,2V34h-5.5V21.9h-1.9V18h5.2l1,2.2c1.1-1.6,3.2-2.5,5.4-2.5c2.1,0,3.9,0.7,4.8,2.2c0.5,0.8,0.7,1.8,0.7,3.5
				V34z"/>
			<path class="st1" d="M122.8,33.3c-0.8,0.6-2.2,1-3.6,1c-1.7,0-2.8-0.5-3.4-1.4c-0.4-0.6-0.6-1.4-0.6-2.7v-8.3h-1.9V18h7.5v11.8
				c0,0.6,0.3,0.9,0.8,0.9c0.5,0,1.1-0.2,1.4-0.4L122.8,33.3z M117.9,16.7c-1.7,0-2.9-1.3-2.9-3c0-1.7,1.3-2.9,2.9-2.9
				c1.6,0,3,1.2,3,2.9S119.5,16.7,117.9,16.7"/>
			<path class="st1" d="M141.8,33.2c-1,0.6-2.3,1.1-3.6,1.1c-1.4,0-2.7-0.6-3.2-1.8c-1.1,1.1-3,1.8-4.8,1.8c-2.1,0-3.9-0.7-4.8-2.2
				c-0.5-0.8-0.7-1.8-0.7-3.5V18h5.5v9.7c0,0.7,0,1.2,0.3,1.7c0.3,0.5,0.9,0.8,1.6,0.8c0.9,0,1.5-0.4,1.8-0.9c0.4-0.5,0.4-1.3,0.4-2
				V18h5.5v11.8c0,0.6,0.3,0.9,0.8,0.9c0.5,0,1.1-0.2,1.4-0.4L141.8,33.2z"/>
			<path class="st1" d="M149.7,34.3c-2,0-4.5-0.3-6.3-1.1l0.3-4.1c1.4,0.9,3.9,1.5,5.6,1.5c1.4,0,2.2-0.3,2.2-1.1
				c0-2.1-8.3-0.3-8.3-6.5c0-4,3.7-5.4,7.2-5.4c1.5,0,3.6,0.3,4.9,0.7v3.7c-1.3-0.5-3-0.9-4.4-0.9c-1.3,0-2.5,0.3-2.5,1.2
				c0,2,8.3,0.3,8.3,6.5C156.5,32.9,153.2,34.3,149.7,34.3"/>
			<path class="st1" d="M171,34.3c-2,0-4.5-0.3-6.3-1.1l0.3-4.1c1.4,0.9,3.9,1.5,5.6,1.5c1.4,0,2.2-0.3,2.2-1.1
				c0-2.1-8.3-0.3-8.3-6.5c0-4,3.7-5.4,7.2-5.4c1.5,0,3.6,0.3,4.9,0.7v3.7c-1.3-0.5-3-0.9-4.4-0.9c-1.3,0-2.5,0.3-2.5,1.2
				c0,2,8.3,0.3,8.3,6.5C177.8,32.9,174.4,34.3,171,34.3"/>
			<path class="st1" d="M193.7,32.7c-1.5,1.2-3.3,1.7-5.5,1.7c-0.8,0-1.7-0.1-2.2-0.2v6.4h-5.5V21.9h-1.9V18h5.2l1.1,2.2
				c1.1-1.6,2.9-2.5,5.2-2.5c4.1,0,6.4,2.7,6.4,8.1C196.3,28.7,195.6,31.2,193.7,32.7 M188.2,21.8c-0.7,0-1.4,0.3-1.8,1
				c-0.4,0.6-0.4,1.3-0.4,2.2v5.7c0.5,0.1,1.1,0.1,1.7,0.1c2.6,0,3.1-1.9,3.1-4.8C190.7,23.6,190.1,21.8,188.2,21.8"/>
			<path class="st1" d="M206,34.3c-5.3,0-8.2-3.3-8.2-8.3c0-5,2.9-8.3,8.2-8.3c5.3,0,8.2,3.3,8.2,8.3C214.2,31,211.2,34.3,206,34.3
				 M206,21.4c-2,0-2.6,1.7-2.6,4.6c0,3,0.6,4.6,2.6,4.6c2,0,2.6-1.6,2.6-4.6C208.6,23,208,21.4,206,21.4"/>
			<path class="st1" d="M226.2,22.1c-0.5-0.1-1-0.1-1.5-0.1c-1.8,0-2.6,0.9-2.6,3v9h-5.5V21.9h-1.9V18h5.2l1,2.3
				c0.8-1.6,2.3-2.6,4.2-2.6c0.5,0,0.8,0,1.2,0.1V22.1z"/>
			<path class="st1" d="M240.2,33c-1.1,0.8-3.1,1.3-4.8,1.3c-1.6,0-2.9-0.4-3.8-1.2c-1-1-1.3-2.3-1.3-4.7v-6.6h-2.6V18h2.6v-3.8
				l5.5-1.3V18h3.6v3.9h-3.6v6.6c0,1.2,0.3,1.9,1.5,1.9c0.9,0,2.1-0.4,3-0.9L240.2,33z"/>
			<path class="st1" d="M248,34.3c-2,0-4.5-0.3-6.3-1.1l0.3-4.1c1.4,0.9,3.9,1.5,5.6,1.5c1.4,0,2.2-0.3,2.2-1.1
				c0-2.1-8.3-0.3-8.3-6.5c0-4,3.7-5.4,7.2-5.4c1.5,0,3.6,0.3,4.9,0.7v3.7c-1.3-0.5-3-0.9-4.4-0.9c-1.3,0-2.5,0.3-2.5,1.2
				c0,2,8.3,0.3,8.3,6.5C254.8,32.9,251.4,34.3,248,34.3"/>
			<path class="st1" d="M51.9,23.2c0.1,2.8-1.3,6.6-3.1,8.5c-0.9,0.9-2,1.8-3.1,2.6c1.1-2.6,1.7-5.4,1.7-8.3c0-0.3,0-0.5,0-0.8
				c4.1-2.6,3.6-7.3,2.6-9.4c-0.8-1.9-2.5-4.3-6.2-4.6l0,0c0.8,0.2,1.5,0.9,1.7,1.4c0.3,0.9,0.1,2.1-0.8,3.1c-2.2-4-5.6-7.2-9.7-9.1
				c0-0.1,0-0.3,0-0.4c0-2.6-2.6-6.4-9-6.3C11.7,0,0,11.7,0,26c0,2.8,1.6,6.3,4.9,7.4c-1.6-1.3-5.5-5-0.5-10.8
				c0.2-0.3,0.5-0.5,0.7-0.8c-0.3,1.4-0.4,2.8-0.4,4.2c0,2.5,0.4,4.8,1.2,7.1c-0.3,0.6-0.6,1.2-0.8,1.9c-1.2,4.1,0.1,8.4,4,10.2
				c2.4,1.1,5.5,1.7,9.1,1.8c-4.8-0.7-8.4-2.4-7-5.5c0,0,0-0.1,0-0.1c2.3,2.2,5.1,3.9,8.2,5c-0.1,2.9,2,5.4,4.9,5.7c0.3,0,1,0,1.5,0
				C40.2,52,52,40.4,52,26C52,25.1,51.9,24.1,51.9,23.2 M6.5,26c0-2.2,0.4-4.3,1-6.2c5.8-4,14.6-5.7,19.9-6.6
				c4.7-0.8,6.5-2.7,7.2-4.7c3.7,1.8,6.7,4.8,8.6,8.4c-0.6,0.4-1.3,0.7-2.2,0.9c-6.4,1.7-14.8,3-22.4,6.1c-4.1,1.7-8.7,3.9-11.5,7.2
				C6.7,29.5,6.5,27.8,6.5,26 M12.2,39.8c2.4-2.9,7.7-6.1,13.7-8.1c5.2-1.7,12.2-3.2,18.9-5.3c0.2-0.1,0.4-0.2,0.7-0.2
				c0,3.6-1,7-2.7,9.9c-0.3,0.1-0.6,0.3-0.9,0.4c-4.6,2.2-10.7,3.7-16.1,4.5c-2.3,0.4-4.6,1.3-5.5,2.7c-0.2,0.3-0.3,0.6-0.5,0.9
				C16.9,43.5,14.3,41.9,12.2,39.8"/>
		</g>
	</g>
</g>
</svg>
